{"title":"Boob.Bangers.7.Sophie.Dee.Katie.Kox.x264.Iou1","uid":9114838,"size":316314423,"categoryP":"porn","categoryS":"movie_clips","magnet":"?xt=urn:btih:356159bddbbbd7507ed09caf1de0030003967b47&amp;dn=Boob.Bangers.7.Sophie.Dee.Katie.Kox.x264.Iou1&amp;tr=udp%3A%2F%2Ftracker.openbittorrent.com%3A80&amp;tr=udp%3A%2F%2Fopen.demonii.com%3A1337&amp;tr=udp%3A%2F%2Ftracker.coppersurfer.tk%3A6969&amp;tr=udp%3A%2F%2Fexodus.desync.com%3A6969","seeders":2,"leechers":4,"uploader":"jaybee211","files":-1,"time":1383006563,"description":"Genre                                    : XXX\nFormat                                   : MPEG-4\nFormat profile                           : Base Media / Version 2\nCodec ID                                 : mp42\nFile size                                : 302 MiB\nDuration                                 : 35mn 1s\nOverall bit rate mode                    : Variable\nOverall bit rate                         : 1 204 Kbps\n\nVideo\nID                                       : 1\nFormat                                   : AVC\nFormat/Info                              : Advanced Video Codec\nFormat profile                           : &lt;a class=&quot;__cf_email__&quot; href=&quot;/cdn-cgi/l/email-protection&quot; data-cfemail=&quot;6f270608072f235c415f&quot;&gt;[email&amp;#160;protected]&lt;/a&gt;&lt;script cf-hash='f9e31' type=&quot;text/javascript&quot;&gt;\n/* &lt;![CDATA[ */!function(){try{var t=&quot;currentScript&quot;in document?document.currentScript:function(){for(var t=document.getElementsByTagName(&quot;script&quot;),e=t.length;e--;)if(t[e].getAttribute(&quot;cf-hash&quot;))return t[e]}();if(t&amp;&amp;t.previousSibling){var e,r,n,i,c=t.previousSibling,a=c.getAttribute(&quot;data-cfemail&quot;);if(a){for(e=&quot;&quot;,r=parseInt(a.substr(0,2),16),n=2;a.length-n;n+=2)i=parseInt(a.substr(n,2),16)^r,e+=String.fromCharCode(i);e=document.createTextNode(e),c.parentNode.replaceChild(e,c)}}}catch(u){}}();/* ]]&gt; */&lt;/script&gt;\nFormat settings, CABAC                   : Yes\nFormat settings, ReFrames                : 3 frames\nCodec ID                                 : avc1\nCodec ID/Info                            : Advanced Video Coding\nDuration                                 : 35mn 0s\nBit rate mode                            : Variable\nBit rate                                 : 1 136 Kbps\nWidth                                    : 640 pixels\nHeight                                   : 480 pixels\nDisplay aspect ratio                     : 4:3\nFrame rate mode                          : Variable\nFrame rate                               : 29.970 fps\nMinimum frame rate                       : 15.863 fps\nMaximum frame rate                       : 30.000 fps\nColor space                              : YUV\nChroma subsampling                       : 4:2:0\nBit depth                                : 8 bits\nScan type                                : Progressive\nBits/(Pixel*Frame)                       : 0.123\nStream size                              : 284 MiB (94%)\nWriting library                          : x264 core 65\n\nAudio\nID                                       : 2\nFormat                                   : AAC\nFormat/Info                              : Advanced Audio Codec\nFormat profile                           : LC\nCodec ID                                 : 40\nDuration                                 : 35mn 1s\nBit rate mode                            : Variable\nBit rate                                 : 64.0 Kbps\nMaximum bit rate                         : 94.6 Kbps\nChannel(s)                               : 2 channels\nChannel positions                        : Front: L R\nSampling rate                            : 22.05 KHz\nCompression mode                         : Lossy\nDelay relative to video                  : 67ms\nStream size                              : 16.0 MiB (5%)\n\nScreen. &lt;a href=&quot; http://bayimg.com/EABJMaaFI&quot; rel=&quot;nofollow&quot; target=&quot;_NEW&quot;&gt; http://bayimg.com/EABJMaaFI&lt;/a&gt;\n\nEnjoy.","torrent":{"xt":"urn:btih:356159bddbbbd7507ed09caf1de0030003967b47","amp;dn":"Boob.Bangers.7.Sophie.Dee.Katie.Kox.x264.Iou1","amp;tr":["udp%3A%2F%2Ftracker.openbittorrent.com%3A80","udp%3A%2F%2Fopen.demonii.com%3A1337","udp%3A%2F%2Ftracker.coppersurfer.tk%3A6969","udp%3A%2F%2Fexodus.desync.com%3A6969"],"infoHash":"356159bddbbbd7507ed09caf1de0030003967b47","infoHashBuffer":{"type":"Buffer","data":[53,97,89,189,219,187,215,80,126,208,156,175,29,224,3,0,3,150,123,71]},"announce":[],"urlList":[]}}